Coordinates
version=1
nRows=27
nColumns=34
inDegrees=no

Units are S.I. units (second, meters, Newtons, ...)
If the header above contains a line with 'inDegrees', this indicates whether rotational values are in degrees (yes) or radians (no).

endheader
time	pelvis_tilt	pelvis_list	pelvis_rotation	pelvis_tx	pelvis_ty	pelvis_tz	hip_flexion_r	hip_adduction_r	hip_rotation_r	knee_angle_r	ankle_angle_r	subtalar_angle_r	mtp_angle_r	hip_flexion_l	hip_adduction_l	hip_rotation_l	knee_angle_l	ankle_angle_l	subtalar_angle_l	mtp_angle_l	lumbar_extension	lumbar_bending	lumbar_rotation	arm_flex_r	arm_add_r	arm_rot_r	elbow_flex_r	pro_sup_r	arm_flex_l	arm_add_l	arm_rot_l	elbow_flex_l	pro_sup_l
0	-0.0578266	0.012349	0.0313467	-0.143954	0.965227	-0.607745	0.0771172	-0.16699	-0.262284	0.18376	0.315386	0.200992	-0.126538	0.0728848	-0.106372	-0.154297	0.122395	0.244024	0.0810256	-0.126545	-0.0844624	-0.018707	-0.132055	0.0800805	-0.087242	-0.0718036	0.511802	1.82183	0.0233254	-0.122921	0.0454998	0.577994	1.64726
0.01	-0.0576679	0.0123585	0.0312012	-0.14405	0.965199	-0.607728	0.0771753	-0.166986	-0.262516	0.183741	0.315392	0.20098	-0.126538	0.072928	-0.106448	-0.155632	0.122632	0.244675	0.0831429	-0.126545	-0.0840254	-0.0187833	-0.133961	0.0814794	-0.0868843	-0.070827	0.509939	1.82308	0.0216065	-0.122616	0.0423525	0.579318	1.64465
0.02	-0.0575118	0.0124568	0.0311253	-0.144155	0.965169	-0.607726	0.0772047	-0.167047	-0.262669	0.183679	0.315405	0.200823	-0.126538	0.0729507	-0.106431	-0.156694	0.122782	0.245111	0.0849319	-0.126545	-0.0836701	-0.0189054	-0.135228	0.0824131	-0.0865277	-0.0706286	0.508644	1.82391	0.0205302	-0.122436	0.0407055	0.579889	1.64193
0.03	-0.0573599	0.0126423	0.0311179	-0.14427	0.965136	-0.607737	0.0772084	-0.167174	-0.262746	0.183577	0.315422	0.200522	-0.126538	0.0729556	-0.106325	-0.157487	0.122849	0.24534	0.0863866	-0.126545	-0.0833945	-0.0190727	-0.135851	0.0828815	-0.0861803	-0.0711781	0.507917	1.82429	0.0201008	-0.122381	0.0405707	0.579705	1.63909
0.04	-0.0572158	0.0129077	0.0311735	-0.144394	0.9651	-0.607761	0.0771944	-0.16736	-0.262749	0.183439	0.315443	0.200084	-0.126538	0.0729496	-0.106134	-0.158025	0.122838	0.245384	0.0874988	-0.126545	-0.0831941	-0.0192807	-0.135825	0.0828905	-0.0858676	-0.0723676	0.507751	1.82418	0.0203263	-0.122458	0.0419739	0.578769	1.63616
0.05	-0.0570831	0.0132376	0.0312801	-0.144527	0.965061	-0.607798	0.0771756	-0.167593	-0.262685	0.183275	0.315466	0.19952	-0.126538	0.0729432	-0.105876	-0.158346	0.122767	0.245286	0.088275	-0.126545	-0.0830629	-0.019519	-0.135148	0.0824623	-0.0856397	-0.0739695	0.508129	1.8235	0.0212131	-0.122678	0.0449389	0.5771	1.63314
0.06	-0.0569626	0.0136071	0.0314166	-0.144671	0.96502	-0.607844	0.0771678	-0.167855	-0.262558	0.1831	0.315487	0.19885	-0.126538	0.0729483	-0.105577	-0.158509	0.122662	0.245104	0.0887579	-0.126545	-0.0829958	-0.0197708	-0.133842	0.081648	-0.0855723	-0.0756143	0.509017	1.82216	0.0227581	-0.123052	0.049457	0.574742	1.63003
0.07	-0.0568509	0.0139839	0.0315554	-0.144826	0.964977	-0.607897	0.0771872	-0.16812	-0.262375	0.182935	0.315501	0.198103	-0.126538	0.0729764	-0.105271	-0.158592	0.122559	0.244896	0.0890349	-0.126545	-0.0829896	-0.0200137	-0.131957	0.0805294	-0.0857612	-0.0768117	0.510363	1.82005	0.0249451	-0.123591	0.0554593	0.57177	1.62682
0.08	-0.0567405	0.0143314	0.03167	-0.144994	0.964932	-0.607954	0.0772469	-0.168361	-0.262154	0.182805	0.315505	0.197319	-0.126538	0.0730374	-0.105	-0.158667	0.1225	0.244712	0.0892256	-0.126545	-0.0830428	-0.0202209	-0.129572	0.0792091	-0.0863102	-0.0770174	0.51212	1.81711	0.0277491	-0.124302	0.0628072	0.568286	1.62346
0.09	-0.0566202	0.0146148	0.0317444	-0.145173	0.964887	-0.608012	0.0773528	-0.168552	-0.261929	0.182735	0.3155	0.196552	-0.126538	0.0731395	-0.104805	-0.15879	0.122528	0.244585	0.0894521	-0.126545	-0.0831534	-0.0203662	-0.126796	0.0778023	-0.0873142	-0.0757117	0.514247	1.81338	0.0311333	-0.125189	0.0712856	0.564421	1.61992
0.1	-0.0564751	0.0148098	0.0317786	-0.145365	0.964841	-0.608069	0.0774994	-0.168676	-0.261746	0.18275	0.315494	0.19586	-0.126538	0.0732863	-0.104718	-0.158982	0.122681	0.244529	0.0898046	-0.126545	-0.0833196	-0.0204311	-0.123769	0.0764323	-0.0888415	-0.0724806	0.516724	1.80897	0.0350451	-0.126257	0.0806116	0.560339	1.61613
0.11	-0.0562815	0.0149089	0.0317875	-0.145569	0.964798	-0.608124	0.0776653	-0.168733	-0.261657	0.182869	0.315499	0.195296	-0.126538	0.0734689	-0.104747	-0.159226	0.122986	0.244543	0.0903127	-0.126545	-0.0835502	-0.0204101	-0.120639	0.0752201	-0.090925	-0.0670944	0.51956	1.80415	0.0394224	-0.127515	0.0904675	0.556242	1.61208
0.12	-0.056002	0.014922	0.0317968	-0.145785	0.96476	-0.608178	0.0778095	-0.16874	-0.261706	0.18311	0.315531	0.194892	-0.126538	0.0736596	-0.10488	-0.159473	0.123459	0.244616	0.0909358	-0.126545	-0.0838749	-0.02031	-0.117546	0.0742772	-0.0935595	-0.0595606	0.522807	1.79929	0.0442059	-0.12897	0.100529	0.552361	1.60783
0.13	-0.0555863	0.0148731	0.0318399	-0.146016	0.964732	-0.608235	0.0778755	-0.168729	-0.261927	0.183482	0.315604	0.194654	-0.126538	0.073815	-0.105081	-0.159651	0.124103	0.244734	0.0915782	-0.126545	-0.0843477	-0.0201435	-0.114601	0.0737024	-0.0967036	-0.0501333	0.526561	1.79485	0.0493562	-0.130612	0.110479	0.548928	1.60355
0.14	-0.0549792	0.0147915	0.031956	-0.146262	0.964718	-0.6083	0.0778002	-0.168738	-0.262337	0.183988	0.315725	0.194556	-0.126538	0.0738883	-0.105307	-0.159683	0.124917	0.244884	0.0921229	-0.126545	-0.0850382	-0.0199209	-0.111884	0.0735833	-0.100287	-0.0392685	0.530944	1.79128	0.0548686	-0.132402	0.120013	0.546147	1.59949
0.15	-0.0541319	0.0147051	0.0321846	-0.146529	0.964724	-0.608378	0.0775279	-0.168802	-0.262937	0.184628	0.31589	0.194549	-0.126538	0.0738416	-0.105515	-0.1595	0.125897	0.245054	0.0924681	-0.126545	-0.0860149	-0.0196464	-0.109446	0.0739978	-0.104222	-0.0275299	0.536082	1.78896	0.0607771	-0.134276	0.12886	0.544161	1.59598
0.16	-0.0530109	0.0146369	0.0325518	-0.146822	0.964752	-0.608476	0.0770225	-0.168946	-0.263707	0.185396	0.316085	0.194574	-0.126538	0.0736498	-0.105669	-0.159062	0.127039	0.245229	0.0925541	-0.126545	-0.0873278	-0.0193203	-0.107301	0.0750148	-0.108418	-0.0154659	0.542088	1.78806	0.0671448	-0.136152	0.136812	0.543057	1.59336
0.17	-0.0516041	0.0146032	0.0330566	-0.147142	0.964804	-0.608595	0.0762771	-0.169183	-0.264604	0.18629	0.316293	0.194572	-0.126538	0.0733005	-0.105752	-0.158383	0.128332	0.245398	0.0923763	-0.126545	-0.0889946	-0.0189444	-0.105432	0.0766972	-0.112792	-0.00350541	0.54904	1.78848	0.0740454	-0.137952	0.143734	0.542887	1.5919
0.18	-0.049925	0.0146124	0.0336713	-0.147493	0.96488	-0.608735	0.0753194	-0.169514	-0.265565	0.187311	0.316499	0.194495	-0.126538	0.0728003	-0.105761	-0.157529	0.129764	0.245562	0.0919827	-0.126545	-0.0909926	-0.0185232	-0.103797	0.0791064	-0.117274	0.00809434	0.556981	1.78981	0.0815458	-0.139613	0.14957	0.543706	1.59171
0.19	-0.0480145	0.014663	0.0343558	-0.147875	0.964977	-0.608889	0.0742118	-0.169927	-0.266519	0.188465	0.31669	0.194298	-0.126538	0.0721871	-0.105713	-0.156604	0.131336	0.245736	0.0914616	-0.126545	-0.0932613	-0.0180617	-0.102351	0.0823098	-0.121798	0.0192316	0.56591	1.79135	0.0896963	-0.141102	0.154342	0.545587	1.59275
0.2	-0.0459365	0.0147411	0.0350761	-0.148291	0.96509	-0.609053	0.0730426	-0.170395	-0.267406	0.189763	0.316852	0.193936	-0.126538	0.0715387	-0.105642	-0.155718	0.133071	0.245951	0.09092	-0.126545	-0.0957136	-0.0175604	-0.101066	0.0863859	-0.126299	0.0298762	0.575781	1.79245	0.09853	-0.142418	0.158163	0.548636	1.59486
0.21	-0.0437699	0.0148199	0.0358158	-0.148743	0.965214	-0.609222	0.0719147	-0.170876	-0.268178	0.191213	0.316966	0.193356	-0.126538	0.0709696	-0.105599	-0.154962	0.135019	0.246241	0.0904656	-0.126545	-0.0982507	-0.0170121	-0.099936	0.0914261	-0.130695	0.0400017	0.586497	1.79267	0.108066	-0.143606	0.161246	0.552979	1.59781
0.22	-0.0415992	0.0148662	0.0365787	-0.149236	0.965341	-0.609389	0.0709365	-0.171323	-0.268804	0.19283	0.31701	0.192492	-0.126538	0.0706198	-0.105642	-0.154396	0.137252	0.246642	0.0901926	-0.126545	-0.100776	-0.016406	-0.09897	0.0975278	-0.134896	0.0495535	0.597928	1.7918	0.118318	-0.144741	0.163903	0.558748	1.60128
0.23	-0.0395037	0.0148527	0.0373855	-0.149776	0.965467	-0.609552	0.0702121	-0.1717	-0.269265	0.194636	0.316966	0.191278	-0.126538	0.0706348	-0.105817	-0.154036	0.139855	0.247174	0.0901585	-0.126545	-0.103211	-0.0157379	-0.0981888	0.104779	-0.138819	0.0584821	0.609941	1.7899	0.129306	-0.145912	0.166494	0.566051	1.60491
0.24	-0.0375469	0.0147685	0.038268	-0.150368	0.965585	-0.609708	0.069833	-0.171999	-0.269561	0.196663	0.316826	0.189657	-0.126538	0.0711453	-0.106144	-0.153841	0.142906	0.247836	0.0903614	-0.126545	-0.105503	-0.0150161	-0.0976166	0.113245	-0.142418	0.0668216	0.622445	1.78716	0.141064	-0.147193	0.169332	0.574934	1.6084
0.25	-0.0357737	0.0146184	0.0392597	-0.151022	0.965693	-0.60986	0.0698749	-0.172234	-0.269701	0.198955	0.316595	0.187592	-0.126538	0.0722559	-0.106613	-0.153732	0.146473	0.248607	0.0907371	-0.126545	-0.107633	-0.0142587	-0.0972733	0.122963	-0.145692	0.0747105	0.635397	1.78379	0.153643	-0.148619	0.172626	0.585374	1.61156
0.26	-0.0342116	0.0144155	0.0403834	-0.151742	0.965787	-0.610008	0.0703955	-0.172433	-0.269703	0.201554	0.316284	0.185075	-0.126538	0.0740384	-0.107199	-0.153604	0.1506	0.249455	0.0911685	-0.126545	-0.109598	-0.013486	-0.0971632	0.133941	-0.14867	0.0823409	0.648787	1.78008	0.167104	-0.150184	0.176474	0.597275	1.6143
